<svg width="25" height="25" viewBox="0 0 25 25" xmlns="http://www.w3.org/2000/svg"><title>icon-small-security</title><g stroke="#455065" fill="none" fill-rule="evenodd"><path d="M3.361 3.796c1.868.952 3.404 1.41 4.609 1.375 1.205-.034 2.804-1.385 4.797-2.733 2.002 1.348 3.601 2.699 4.797 2.733 1.196.035 2.732-.423 4.609-1.375 3.094 8.891-.041 15.442-9.406 19.652-8.45-3.865-11.585-10.415-9.406-19.652z"/><path d="M12.841 19.843c6.075-2.787 8.157-6.986 6.327-12.718-1.18.555-2.176.825-2.994.801-.878-.025-1.982-.945-3.334-1.827-1.346.882-2.45 1.802-3.334 1.827-.813.023-1.793-.239-2.95-.779-1.245 5.944.835 10.14 6.285 12.696z"/></g></svg>