<svg xmlns="http://www.w3.org/2000/svg" xmlns:xlink="http://www.w3.org/1999/xlink" width="69" height="41" viewBox="0 0 69 41">
    <defs>
        <path id="icon-no-document-a" d="M14.4158004,7.40033475 C14.4158004,4.08117938 16.9827474,2.20161279 20.1306266,3.19632448 L35.5325577,8.06324595 C37.117325,8.5640233 38.4092185,10.3212127 38.4179823,11.9692039 L38.6146519,48.951776 C38.6322722,52.2651783 36.1220128,54.0496876 32.9961012,52.9334004 L18.17527,47.640767 C16.0989723,46.8993051 14.4158004,44.5100816 14.4158004,42.293227 L14.4158004,7.40033475 Z"/>
    </defs>
    <g fill="none" fill-rule="evenodd" transform="translate(-.61 .744)">
        <path stroke="#919191" stroke-width="2" d="M36.3715869,4.81915942 L36.3715869,42.54475 C36.3715869,44.2110166 35.0236574,45.5840783 33.3578698,45.6118308 L33.0330245,45.6172428 L13.3399041,45.5618948 C10.580335,45.5541655 8.34231081,43.3050965 8.34231081,40.5367104 L8.34231081,9.82754898 C8.34231081,7.06601598 10.5859776,4.81915942 13.3325002,4.81915942 L33.4524329,4.81915942 L36.3715869,4.81915942 Z" transform="rotate(-90 22.357 25.218)"/>
        <path stroke="#919191" stroke-width="2" d="M12.465332,0.428917873 L12.6070819,0.428917873 L12.7615401,16.7737189 L12.6452002,16.7737189 L10.3789282,16.2876886 C8.93451278,15.9779156 7.71247793,14.4678908 7.71247793,13.0021403 L7.71247793,4.08733638 L7.71247793,4.08733638 C7.71247793,2.6182682 8.92157127,1.14129328 10.36098,0.85193984 L12.465332,0.428917873 Z" transform="rotate(90 10.242 8.601)"/>
        <g transform="rotate(-90 26.515 28.098)">
            <use fill="#FFF" xlink:href="#icon-no-document-a"/>
            <path stroke="#919191" stroke-width="2" d="M15.4158004,7.40033475 C15.4158004,4.75957509 17.3236914,3.35808759 19.8293177,4.14985106 L35.2312488,9.01677254 C36.3993644,9.38589035 37.4115275,10.7580695 37.4179965,11.9745217 L37.614666,48.9570938 C37.6286084,51.5788739 35.8029487,52.8738971 33.3324082,51.991648 L18.5115771,46.6990146 C16.8319999,46.0992247 15.4158004,44.0860844 15.4158004,42.293227 L15.4158004,7.40033475 Z"/>
        </g>
        <path stroke="#919191" stroke-linecap="round" stroke-width="2" d="M51.3765646 7.84153195L53.5413165.881349868M58.7031145 14.2168921L65.0510155 8.276561M60.6502562 23.5597358L68.2107833 22.8073682"/>
    </g>
</svg>
