<svg width="489" height="411" viewBox="0 0 489 411" xmlns="http://www.w3.org/2000/svg" xmlns:xlink="http://www.w3.org/1999/xlink"><title>img-security</title><defs><circle id="b" cx="67.837" cy="68.172" r="67.468"/><filter x="-34.1%" y="-32.6%" width="168.2%" height="168.2%" filterUnits="objectBoundingBox" id="a"><feOffset dy="2" in="SourceAlpha" result="shadowOffsetOuter1"/><feGaussianBlur stdDeviation="15" in="shadowOffsetOuter1" result="shadowBlurOuter1"/><feColorMatrix values="0 0 0 0 0.484966965 0 0 0 0 0.623375154 0 0 0 0 0.706420068 0 0 0 1 0" in="shadowBlurOuter1"/></filter><circle id="d" cx="68.08" cy="68.172" r="67.468"/><filter x="-34.1%" y="-32.6%" width="168.2%" height="168.2%" filterUnits="objectBoundingBox" id="c"><feOffset dy="2" in="SourceAlpha" result="shadowOffsetOuter1"/><feGaussianBlur stdDeviation="15" in="shadowOffsetOuter1" result="shadowBlurOuter1"/><feColorMatrix values="0 0 0 0 0.484966965 0 0 0 0 0.623375154 0 0 0 0 0.706420068 0 0 0 1 0" in="shadowBlurOuter1"/></filter><circle id="f" cx="68.394" cy="67.842" r="67.468"/><filter x="-34.1%" y="-32.6%" width="168.2%" height="168.2%" filterUnits="objectBoundingBox" id="e"><feOffset dy="2" in="SourceAlpha" result="shadowOffsetOuter1"/><feGaussianBlur stdDeviation="15" in="shadowOffsetOuter1" result="shadowBlurOuter1"/><feColorMatrix values="0 0 0 0 0.484966965 0 0 0 0 0.623375154 0 0 0 0 0.706420068 0 0 0 1 0" in="shadowBlurOuter1"/></filter></defs><g fill="none" fill-rule="evenodd"><path d="M243.855 96.973l-136.148 215.07M248.478 94.074l140.48 220.1M92.843 312.347H426.38" stroke="#717989" stroke-linecap="square" stroke-dasharray="3"/><g transform="translate(324 244)"><use fill="#000" filter="url(#a)" xlink:href="#b"/><use fill="#FFF" xlink:href="#b"/></g><g transform="translate(358.119 284.073)"><rect stroke="#455065" stroke-width="2" x="1" y="1" width="68.186" height="45.711" rx="3"/><path d="M19.867 57.28h30.451" stroke="#455065" stroke-width="5" stroke-linecap="round"/><path d="M35.235 46.2v9.4" stroke="#455065" stroke-width="5"/><g transform="translate(23.957 8.546)"><rect stroke="#455065" stroke-width="2" x="1" y="12.772" width="20" height="15.228" rx="1"/><path d="M5.369 12.148a46.058 46.058 0 0 1-.014-3.406c.053-1.444.2-2.517.381-2.827 1.23-2.108 2.992-3.547 5.537-3.547 2.63 0 5.158 2.311 5.432 3.999.077.48.12 1.413.127 2.636a88.987 88.987 0 0 1-.04 3.205.852.852 0 0 0 1.703.054 52.64 52.64 0 0 0 .022-.859c.017-.814.025-1.639.02-2.41-.009-1.311-.053-2.304-.15-2.9-.403-2.487-3.622-5.43-7.114-5.43-3.282 0-5.506 1.817-7.01 4.393-.38.654-.547 1.866-.611 3.624a47.687 47.687 0 0 0 .014 3.543.852.852 0 0 0 1.703-.075zM10 18.426v3.92a.852.852 0 0 0 1.705 0v-3.92a.852.852 0 1 0-1.705 0z" fill="#455065" fill-rule="nonzero"/></g></g><g transform="translate(29 244)"><use fill="#000" filter="url(#c)" xlink:href="#d"/><use fill="#FFF" xlink:href="#d"/></g><g fill="#455065"><path d="M114.957 296.493v7.323h1.583v-8.018l-18.218-16.747H76.257a4.75 4.75 0 0 0-4.75 4.75v50.125a4.75 4.75 0 0 0 4.75 4.75h25.254v-1.583H76.257a3.167 3.167 0 0 1-3.167-3.167v-50.125a3.167 3.167 0 0 1 3.167-3.167h21.447l17.253 15.86z" stroke="#455065" stroke-width=".5" fill-rule="nonzero"/><path d="M114.89 296.768H99.65a2.378 2.378 0 0 1-2.37-2.38v-13.882c0-1.128 1.09-1.586 1.914-.825l16.437 15.173c.85.783.421 1.914-.742 1.914zM98.862 281.53v12.858c0 .439.356.797.786.797h14.006L98.863 281.53zM81.246 307.004h21.993a.792.792 0 0 0 0-1.583H81.246a.792.792 0 0 0 0 1.583zM81.246 314.13h14.868a.792.792 0 0 0 0-1.584H81.246a.792.792 0 0 0 0 1.583zM81.246 321.255h12.493a.792.792 0 0 0 0-1.584H81.246a.792.792 0 0 0 0 1.584zM112.636 331.896a9.455 9.455 0 1 1 0-18.91 9.455 9.455 0 0 1 0 18.91zm0-1.583a7.872 7.872 0 1 0 0-15.743 7.872 7.872 0 0 0 0 15.743z" stroke="#455065" stroke-width=".5" fill-rule="nonzero"/><path d="M112.636 337.174c-8.137 0-14.732-6.596-14.732-14.733 0-8.136 6.595-14.732 14.732-14.732 8.136 0 14.732 6.596 14.732 14.732 0 8.137-6.596 14.733-14.732 14.733zm0-1.584c7.262 0 13.149-5.887 13.149-13.149s-5.887-13.149-13.15-13.149c-7.261 0-13.148 5.887-13.148 13.15 0 7.261 5.887 13.148 13.149 13.148z" stroke="#455065" stroke-width=".5" fill-rule="nonzero"/><path d="M104.068 337.667s3.771 2.828 8.171 2.828c4.4 0 7.543-1.571 9.115-2.514v13.152c0 .549-.335.708-.766.338l-8.034-6.89-7.733 6.873c-.416.37-.753.221-.753-.324v-13.463z"/></g><g><g transform="translate(175 27)"><use fill="#000" filter="url(#e)" xlink:href="#f"/><use fill="#FFF" xlink:href="#f"/></g><path d="M281.325 96.676l.061-.019-8.175-26.473h-1.667l8.181 26.492h-20.903l8.18-26.492h-1.667l-8.21 26.59.067.02c1.164 4.404 6.124 7.716 12.08 7.716 6.01 0 11.012-3.37 12.117-7.834h-.064zM223.81 70.184h-1.667l8.181 26.492h-20.903l8.18-26.492h-1.666l-8.176 26.473.062.02h-.064c1.106 4.463 6.107 7.833 12.117 7.833 5.956 0 10.917-3.312 12.081-7.716l.067-.021-8.211-26.589z" fill="#455065"/><path d="M212.83 68.586h63.93" stroke="#455065" stroke-width="3" stroke-linecap="round"/><path d="M244.791 63.774v61.643" stroke="#455065" stroke-width="4" stroke-linecap="round"/><path d="M235.203 124.885h18.142" stroke="#455065" stroke-width="5" stroke-linecap="round"/></g></g></svg>